<svg xmlns="http://www.w3.org/2000/svg" viewBox="0 0 375.4 74.5"><defs><style>.cls-1{fill:#fff;}</style></defs><g id="Layer_2" data-name="Layer 2"><g id="Layer_3" data-name="Layer 3"><path class="cls-1" d="M9.5,85A2.4,2.4,0,0,1,7,82.5v-65A2.4,2.4,0,0,1,9.5,15h26a40,40,0,0,1,16.7,3.15,23.54,23.54,0,0,1,10.6,9.2q3.7,6,4,14.95.11,4.39.1,7.7t-.1,7.6q-.4,9.3-3.95,15.4a21.56,21.56,0,0,1-10.3,9Q45.8,85,36,85ZM24.9,70.6H35.5a16.67,16.67,0,0,0,7.15-1.35A9,9,0,0,0,47,65a17.93,17.93,0,0,0,1.55-7.6c.13-1.93.22-3.67.25-5.2s0-3.07,0-4.6-.12-3.23-.25-5.1q-.2-6.8-3.55-10T35,29.4H24.9Z" transform="translate(-7 -11.5)"/><path class="cls-1" d="M79.9,25.5a2.4,2.4,0,0,1-1.8-.7,2.43,2.43,0,0,1-.7-1.8V14.1a2.6,2.6,0,0,1,.7-1.85,2.33,2.33,0,0,1,1.8-.75H91.8a2.56,2.56,0,0,1,2.6,2.6V23a2.36,2.36,0,0,1-.75,1.8,2.6,2.6,0,0,1-1.85.7ZM80,85a2.4,2.4,0,0,1-1.8-.7,2.43,2.43,0,0,1-.7-1.8v-47a2.43,2.43,0,0,1,.7-1.8A2.4,2.4,0,0,1,80,33H91.8a2.48,2.48,0,0,1,1.75.7,2.36,2.36,0,0,1,.75,1.8v47a2.36,2.36,0,0,1-.75,1.8,2.48,2.48,0,0,1-1.75.7Z" transform="translate(-7 -11.5)"/><path class="cls-1" d="M109.6,85a2.46,2.46,0,0,1-1.75-.7,2.36,2.36,0,0,1-.75-1.8v-65a2.36,2.36,0,0,1,.75-1.8,2.46,2.46,0,0,1,1.75-.7h10.8a3.32,3.32,0,0,1,2.45.85,5.13,5.13,0,0,1,1.05,1.35l17.6,31.6,17.6-31.6a10.62,10.62,0,0,1,1.05-1.35A3.1,3.1,0,0,1,162.6,15h10.7a2.6,2.6,0,0,1,1.85.7,2.36,2.36,0,0,1,.75,1.8v65a2.36,2.36,0,0,1-.75,1.8,2.6,2.6,0,0,1-1.85.7H161.4a2.58,2.58,0,0,1-1.85-.7,2.36,2.36,0,0,1-.75-1.8V45L147.5,65.9a4.71,4.71,0,0,1-1.2,1.6,3.23,3.23,0,0,1-2.2.7h-5.2a3.19,3.19,0,0,1-2.2-.7,5.83,5.83,0,0,1-1.3-1.6L124.1,45V82.5a2.47,2.47,0,0,1-.7,1.8,2.43,2.43,0,0,1-1.8.7Z" transform="translate(-7 -11.5)"/><path class="cls-1" d="M213.3,86a33.16,33.16,0,0,1-14.15-2.7,19.74,19.74,0,0,1-8.8-7.75,25.65,25.65,0,0,1-3.45-12c-.07-1.33-.1-2.85-.1-4.55s0-3.18.1-4.45a24.49,24.49,0,0,1,3.6-12.1,20.84,20.84,0,0,1,8.95-7.7,37.13,37.13,0,0,1,27.8,0,21,21,0,0,1,8.95,7.7,24.7,24.7,0,0,1,3.6,12.1c.06,1.27.1,2.75.1,4.45s0,3.22-.1,4.55a25.88,25.88,0,0,1-3.45,12,19.85,19.85,0,0,1-8.8,7.75A33.48,33.48,0,0,1,213.3,86Zm0-12.2q4.5,0,6.55-2.7c1.36-1.8,2.15-4.5,2.35-8.1.06-1,.1-2.33.1-4s0-3-.1-4c-.2-3.53-1-6.22-2.35-8s-3.55-2.75-6.55-2.75-5.1.92-6.5,2.75-2.17,4.52-2.3,8c-.07,1-.1,2.33-.1,4s0,3,.1,4q.19,5.4,2.3,8.1C208.2,72.9,210.36,73.8,213.3,73.8Z" transform="translate(-7 -11.5)"/><path class="cls-1" d="M253.3,85a2.46,2.46,0,0,1-1.75-.7,2.36,2.36,0,0,1-.75-1.8v-65a2.36,2.36,0,0,1,.75-1.8,2.46,2.46,0,0,1,1.75-.7h10.8a3.32,3.32,0,0,1,2.45.85,5.13,5.13,0,0,1,1.05,1.35l17.6,31.6,17.6-31.6a10.62,10.62,0,0,1,1.05-1.35A3.1,3.1,0,0,1,306.3,15H317a2.6,2.6,0,0,1,1.85.7,2.36,2.36,0,0,1,.75,1.8v65a2.36,2.36,0,0,1-.75,1.8A2.6,2.6,0,0,1,317,85H305.1a2.58,2.58,0,0,1-1.85-.7,2.36,2.36,0,0,1-.75-1.8V45L291.2,65.9a4.71,4.71,0,0,1-1.2,1.6,3.23,3.23,0,0,1-2.2.7h-5.2a3.19,3.19,0,0,1-2.2-.7,5.83,5.83,0,0,1-1.3-1.6L267.8,45V82.5a2.47,2.47,0,0,1-.7,1.8,2.43,2.43,0,0,1-1.8.7Z" transform="translate(-7 -11.5)"/><path class="cls-1" d="M356.4,86q-11.81,0-18.8-6.4t-7.3-19V57.1a29,29,0,0,1,3.55-13.55,21.44,21.44,0,0,1,9-8.6,29,29,0,0,1,13.45-3q8.79,0,14.55,3.5A22.29,22.29,0,0,1,379.5,45a31.16,31.16,0,0,1,2.9,13.7v2.4a2.36,2.36,0,0,1-.75,1.8,2.48,2.48,0,0,1-1.75.7h-32v.7a16.48,16.48,0,0,0,1,5.3,8.1,8.1,0,0,0,2.8,3.8,7.55,7.55,0,0,0,4.6,1.4,7.75,7.75,0,0,0,3.35-.65,8.65,8.65,0,0,0,2.25-1.5,19.4,19.4,0,0,0,1.4-1.45A5.19,5.19,0,0,1,364.75,70a4.43,4.43,0,0,1,1.75-.25h12.4a2.47,2.47,0,0,1,1.65.55,1.71,1.71,0,0,1,.55,1.55,8.91,8.91,0,0,1-1.7,4.1,20.85,20.85,0,0,1-4.65,4.75,25.36,25.36,0,0,1-7.65,3.85A34.6,34.6,0,0,1,356.4,86Zm-8.5-32.3h16.9v-.2a15.24,15.24,0,0,0-.95-5.6,7.77,7.77,0,0,0-2.9-3.7,8.16,8.16,0,0,0-4.65-1.3,7.68,7.68,0,0,0-4.55,1.3,8.19,8.19,0,0,0-2.85,3.7,14.43,14.43,0,0,0-1,5.6Z" transform="translate(-7 -11.5)"/></g></g></svg>