<svg xmlns="http://www.w3.org/2000/svg" xmlns:xlink="http://www.w3.org/1999/xlink" viewBox="0 0 175.99 170.15"><defs><style>.cls-1,.cls-2,.cls-3,.cls-4,.cls-5,.cls-6{stroke-miterlimit:10;}.cls-1,.cls-2,.cls-3,.cls-4{stroke-width:7.31px;}.cls-1{fill:url(#New_Gradient_Swatch_1);stroke:url(#New_Gradient_Swatch_1-2);}.cls-2,.cls-3{fill:none;}.cls-2{stroke:url(#New_Gradient_Swatch_1-3);}.cls-3{stroke:url(#New_Gradient_Swatch_1-4);}.cls-4{fill:url(#New_Gradient_Swatch_1-5);stroke:url(#New_Gradient_Swatch_1-6);}.cls-5,.cls-6{stroke:#f15a24;stroke-width:3px;}.cls-5{fill:url(#New_Gradient_Swatch_1-7);}.cls-6{fill:url(#New_Gradient_Swatch_1-8);}</style><linearGradient id="New_Gradient_Swatch_1" x1="13.86" y1="125.23" x2="145.74" y2="125.23" gradientUnits="userSpaceOnUse"><stop offset="0" stop-color="#ff5c00"/><stop offset="1" stop-color="#ffb82a"/></linearGradient><linearGradient id="New_Gradient_Swatch_1-2" x1="9.05" y1="125.23" x2="150.5" y2="125.23" xlink:href="#New_Gradient_Swatch_1"/><linearGradient id="New_Gradient_Swatch_1-3" x1="0" y1="61.56" x2="159.35" y2="61.56" xlink:href="#New_Gradient_Swatch_1"/><linearGradient id="New_Gradient_Swatch_1-4" x1="145.74" y1="117.25" x2="145.76" y2="117.25" xlink:href="#New_Gradient_Swatch_1"/><linearGradient id="New_Gradient_Swatch_1-5" x1="46.8" y1="51.14" x2="114.03" y2="51.14" xlink:href="#New_Gradient_Swatch_1"/><linearGradient id="New_Gradient_Swatch_1-6" x1="43.14" y1="51.14" x2="117.69" y2="51.14" xlink:href="#New_Gradient_Swatch_1"/><linearGradient id="New_Gradient_Swatch_1-7" x1="103.4" y1="117.54" x2="143.34" y2="117.54" xlink:href="#New_Gradient_Swatch_1"/><linearGradient id="New_Gradient_Swatch_1-8" x1="72.25" y1="117.54" x2="174.49" y2="117.54" xlink:href="#New_Gradient_Swatch_1"/></defs><g id="Layer_2" data-name="Layer 2"><g id="Layer_3" data-name="Layer 3"><path class="cls-1" d="M145.74,117.25a75.94,75.94,0,0,1-66,38.4,77.36,77.36,0,0,1-62-32c-.82-1.14-2.23-3.14-3.85-5.89,13.63-10.25,36.49-22.95,66.42-22.92q2.93,0,6,.17A108,108,0,0,1,145.74,117.25Z"/><path class="cls-2" d="M82.76,3.72c-.68,0-1.34,0-2,0h0c-.34,0-.66,0-1,0-46.05,0-74.86,41.85-76,76-.58,16.85,5.63,30.42,10.17,38.1,13.63-10.25,36.49-22.95,66.42-22.92q2.93,0,6,.17a108,108,0,0,1,59.47,22.26,76,76,0,0,0-63-113.53Zm-2.33,81A33.62,33.62,0,1,1,114,51.15,33.61,33.61,0,0,1,80.43,84.75Z"/><line class="cls-3" x1="145.76" y1="117.25" x2="145.74" y2="117.25"/><path class="cls-4" d="M114,51.15a33.62,33.62,0,1,1-33.6-33.63A33.6,33.6,0,0,1,114,51.15Z"/><path class="cls-5" d="M123.37,97.57a20,20,0,1,0,20,20A20,20,0,0,0,123.37,97.57Zm0,35.14a15.18,15.18,0,1,1,15.18-15.17A15.17,15.17,0,0,1,123.37,132.71Z"/><path class="cls-6" d="M168.9,104.76h-7.13a.8.8,0,0,1-.75-.55,40.89,40.89,0,0,0-1.6-3.87.79.79,0,0,1,.14-.92l5-5a5.57,5.57,0,0,0,0-7.9h0L154.43,76.31a5.57,5.57,0,0,0-7.9,0h0l-5,5a.81.81,0,0,1-.92.14,41.07,41.07,0,0,0-3.88-1.6.8.8,0,0,1-.54-.75V72a5.59,5.59,0,0,0-5.59-5.59H116.18A5.59,5.59,0,0,0,110.59,72v7.13a.8.8,0,0,1-.54.75,40.89,40.89,0,0,0-3.87,1.6.8.8,0,0,1-.92-.14l-5.05-5a5.58,5.58,0,0,0-7.91,0h0L82.14,86.47a5.6,5.6,0,0,0,0,7.91h0l5,5a.81.81,0,0,1,.15.92,38.41,38.41,0,0,0-1.6,3.87.81.81,0,0,1-.75.55H77.84a5.59,5.59,0,0,0-5.59,5.59v14.37a5.6,5.6,0,0,0,5.59,5.6H85a.8.8,0,0,1,.75.54,38.41,38.41,0,0,0,1.6,3.87.81.81,0,0,1-.15.92l-5,5a5.6,5.6,0,0,0,0,7.91h0l10.17,10.16a5.58,5.58,0,0,0,7.91,0h0l5-5a.8.8,0,0,1,.92-.14,40.89,40.89,0,0,0,3.87,1.6.8.8,0,0,1,.54.75v7.12a5.59,5.59,0,0,0,5.59,5.59h14.38a5.59,5.59,0,0,0,5.59-5.59h0v-7.13a.8.8,0,0,1,.54-.75,38.58,38.58,0,0,0,3.88-1.6.81.81,0,0,1,.92.15l5,5a5.6,5.6,0,0,0,7.91,0h0l10.17-10.17a5.6,5.6,0,0,0,0-7.91h0l-5-5a.79.79,0,0,1-.14-.92,38.34,38.34,0,0,0,1.59-3.87.8.8,0,0,1,.75-.54h7.13a5.6,5.6,0,0,0,5.59-5.6V110.35A5.59,5.59,0,0,0,168.9,104.76Zm.8,20a.8.8,0,0,1-.8.8h-7.13a5.62,5.62,0,0,0-5.28,3.75,32.39,32.39,0,0,1-1.4,3.4,5.58,5.58,0,0,0,1.08,6.39l5,5a.8.8,0,0,1,0,1.13l-10.16,10.15a.8.8,0,0,1-1.13,0l-5-5a5.59,5.59,0,0,0-6.39-1.08,34.94,34.94,0,0,1-3.41,1.41,5.58,5.58,0,0,0-3.74,5.27v7.12a.8.8,0,0,1-.8.8H116.18a.8.8,0,0,1-.8-.8v-7.13a5.58,5.58,0,0,0-3.74-5.27,33.77,33.77,0,0,1-3.4-1.41,5.61,5.61,0,0,0-6.39,1.08l-5,5a.8.8,0,0,1-1.13,0L85.53,145.21a.79.79,0,0,1,0-1.12l5-5a5.61,5.61,0,0,0,1.08-6.39,35.11,35.11,0,0,1-1.41-3.42A5.61,5.61,0,0,0,85,125.52H77.84a.79.79,0,0,1-.79-.8V110.35a.79.79,0,0,1,.79-.8H85a5.59,5.59,0,0,0,5.27-3.75c.41-1.16.88-2.29,1.4-3.4A5.59,5.59,0,0,0,90.58,96l-5-5a.8.8,0,0,1,0-1.13L95.7,79.69a.79.79,0,0,1,1.12,0l5,5a5.58,5.58,0,0,0,6.39,1.08,34.94,34.94,0,0,1,3.41-1.41,5.57,5.57,0,0,0,3.72-5.26V72a.8.8,0,0,1,.8-.8h14.38a.8.8,0,0,1,.8.8v7.13a5.57,5.57,0,0,0,3.74,5.27,34.94,34.94,0,0,1,3.41,1.41,5.59,5.59,0,0,0,6.39-1.08l5-5a.79.79,0,0,1,1.12,0l10.17,10.17a.79.79,0,0,1,0,1.12l-5,5a5.61,5.61,0,0,0-1.08,6.39,36,36,0,0,1,1.41,3.41,5.58,5.58,0,0,0,5.27,3.74h7.11a.8.8,0,0,1,.8.8Z"/></g></g></svg>