<svg xmlns="http://www.w3.org/2000/svg" xmlns:xlink="http://www.w3.org/1999/xlink" viewBox="0 0 241.79 233.75"><defs><style>.cls-1{fill:none;stroke-linecap:round;stroke-miterlimit:10;stroke-width:10px;stroke:url(#New_Gradient_Swatch_1);}</style><linearGradient id="New_Gradient_Swatch_1" y1="116.87" x2="241.79" y2="116.87" gradientUnits="userSpaceOnUse"><stop offset="0" stop-color="#ff5c00"/><stop offset="1" stop-color="#ffb82a"/></linearGradient></defs><g id="Layer_2" data-name="Layer 2"><g id="Layer_3" data-name="Layer 3"><path class="cls-1" d="M168.52,169.06c.8,6.62,1.06,26,0,42a19.49,19.49,0,0,1-6,12.77A19.24,19.24,0,0,1,152,228.75H22.68c-7.45-2.09-9.56-3.4-11.83-6.76A34.41,34.41,0,0,1,6.34,211.1c-1.76-8.19-1.82-85.08,0-190A19.5,19.5,0,0,1,20.23,5H155.76a18.55,18.55,0,0,1,9.38,6.76,18.31,18.31,0,0,1,3.38,9.38V65.07M38.25,42.54h63.63M38.25,87H130.6M38.25,107.3h83m-83,24.19H98.51M38.25,152.91H79.76m-41.51,40H73.73m66.16,1.41,89.82-89.82A25.56,25.56,0,1,0,191.42,70.7L103,159.11q-.84,18.3-1.69,36.6ZM103,159.11l36.88,35.19M173.4,88.72,210,124.19M188.46,73.65,225.21,109"/></g></g></svg>