<svg xmlns="http://www.w3.org/2000/svg" viewBox="0 0 79.03 79.01"><defs><style>.cls-1{fill:#fff;}.cls-1,.cls-2{stroke:#fff;stroke-miterlimit:10;stroke-width:8px;}.cls-2{fill:none;}</style></defs><g id="Layer_2" data-name="Layer 2"><g id="Layer_3" data-name="Layer 3"><path class="cls-1" d="M70.38,57.07A35.48,35.48,0,0,1,39.53,75a36.15,36.15,0,0,1-29-15c-.38-.53-1-1.47-1.8-2.75a51.68,51.68,0,0,1,31-10.71c.91,0,1.85,0,2.8.08A50.44,50.44,0,0,1,70.38,57.07Z"/><path class="cls-2" d="M41,4,40,4h-.48C18,4,4.56,23.55,4,39.5A33.14,33.14,0,0,0,8.77,57.3a51.68,51.68,0,0,1,31-10.71c.91,0,1.85,0,2.8.08a50.44,50.44,0,0,1,27.78,10.4A35.5,35.5,0,0,0,41,4ZM39.87,41.89a15.71,15.71,0,1,1,15.7-15.7A15.7,15.7,0,0,1,39.87,41.89Z"/><line class="cls-2" x1="70.39" y1="57.07" x2="70.38" y2="57.07"/><path class="cls-1" d="M55.57,26.19a15.71,15.71,0,1,1-15.7-15.71A15.7,15.7,0,0,1,55.57,26.19Z"/></g></g></svg>