<svg xmlns="http://www.w3.org/2000/svg" viewBox="0 0 467.23 74.5"><defs><style>.cls-1{fill:#fff;}.cls-2,.cls-3,.cls-4{fill:none;stroke:#fff;stroke-miterlimit:10;}.cls-2{stroke-width:4.41px;}.cls-3{stroke-linecap:round;stroke-width:3.86px;}.cls-4{stroke-width:4.85px;}</style></defs><g id="Layer_2" data-name="Layer 2"><g id="Layer_3" data-name="Layer 3"><path class="cls-1" d="M94.34,85a2.4,2.4,0,0,1-1.8-.7,2.43,2.43,0,0,1-.7-1.8v-65a2.43,2.43,0,0,1,.7-1.8,2.4,2.4,0,0,1,1.8-.7h26A40,40,0,0,1,137,18.15a23.54,23.54,0,0,1,10.6,9.2,30.25,30.25,0,0,1,4,14.95c.06,2.93.1,5.5.1,7.7s0,4.73-.1,7.6q-.4,9.3-3.95,15.4a21.56,21.56,0,0,1-10.3,9q-6.75,3-16.55,3Zm15.4-14.4h10.6a16.71,16.71,0,0,0,7.15-1.35,9,9,0,0,0,4.3-4.25,18.08,18.08,0,0,0,1.55-7.6c.13-1.93.21-3.67.25-5.2s0-3.07,0-4.6-.12-3.23-.25-5.1q-.21-6.8-3.55-10t-9.95-3.15h-10.1Z" transform="translate(0 -11.5)"/><path class="cls-1" d="M164.74,25.5a2.4,2.4,0,0,1-1.8-.7,2.43,2.43,0,0,1-.7-1.8V14.1a2.6,2.6,0,0,1,.7-1.85,2.33,2.33,0,0,1,1.8-.75h11.9a2.56,2.56,0,0,1,2.6,2.6V23a2.36,2.36,0,0,1-.75,1.8,2.6,2.6,0,0,1-1.85.7Zm.1,59.5a2.4,2.4,0,0,1-1.8-.7,2.43,2.43,0,0,1-.7-1.8v-47a2.43,2.43,0,0,1,.7-1.8,2.4,2.4,0,0,1,1.8-.7h11.8a2.48,2.48,0,0,1,1.75.7,2.36,2.36,0,0,1,.75,1.8v47a2.36,2.36,0,0,1-.75,1.8,2.48,2.48,0,0,1-1.75.7Z" transform="translate(0 -11.5)"/><path class="cls-1" d="M194.44,85a2.46,2.46,0,0,1-1.75-.7,2.36,2.36,0,0,1-.75-1.8v-65a2.36,2.36,0,0,1,.75-1.8,2.46,2.46,0,0,1,1.75-.7h10.8a3.32,3.32,0,0,1,2.45.85,5.13,5.13,0,0,1,1.05,1.35l17.6,31.6,17.6-31.6A10.62,10.62,0,0,1,245,15.85a3.1,3.1,0,0,1,2.45-.85h10.7a2.6,2.6,0,0,1,1.85.7,2.36,2.36,0,0,1,.75,1.8v65a2.36,2.36,0,0,1-.75,1.8,2.6,2.6,0,0,1-1.85.7h-11.9a2.58,2.58,0,0,1-1.85-.7,2.36,2.36,0,0,1-.75-1.8V45l-11.3,20.9a4.71,4.71,0,0,1-1.2,1.6,3.23,3.23,0,0,1-2.2.7h-5.2a3.19,3.19,0,0,1-2.2-.7,5.83,5.83,0,0,1-1.3-1.6L208.94,45V82.5a2.47,2.47,0,0,1-.7,1.8,2.43,2.43,0,0,1-1.8.7Z" transform="translate(0 -11.5)"/><path class="cls-1" d="M298.14,86A33.16,33.16,0,0,1,284,83.3a19.74,19.74,0,0,1-8.8-7.75,25.65,25.65,0,0,1-3.45-12c-.07-1.33-.1-2.85-.1-4.55s0-3.18.1-4.45a24.49,24.49,0,0,1,3.6-12.1,20.84,20.84,0,0,1,9-7.7,37.13,37.13,0,0,1,27.8,0,21,21,0,0,1,9,7.7,24.7,24.7,0,0,1,3.6,12.1c.06,1.27.1,2.75.1,4.45s0,3.22-.1,4.55a25.88,25.88,0,0,1-3.45,12,19.85,19.85,0,0,1-8.8,7.75A33.48,33.48,0,0,1,298.14,86Zm0-12.2q4.5,0,6.55-2.7c1.36-1.8,2.15-4.5,2.35-8.1.06-1,.1-2.33.1-4s0-3-.1-4c-.2-3.53-1-6.22-2.35-8s-3.55-2.75-6.55-2.75-5.1.92-6.5,2.75-2.17,4.52-2.3,8c-.07,1-.1,2.33-.1,4s0,3,.1,4q.2,5.4,2.3,8.1C293,72.9,295.2,73.8,298.14,73.8Z" transform="translate(0 -11.5)"/><path class="cls-1" d="M338.13,85a2.48,2.48,0,0,1-1.75-.7,2.36,2.36,0,0,1-.75-1.8v-65a2.36,2.36,0,0,1,.75-1.8,2.48,2.48,0,0,1,1.75-.7h10.8a3.29,3.29,0,0,1,2.45.85,4.72,4.72,0,0,1,1.05,1.35L370,48.8l17.6-31.6a10.62,10.62,0,0,1,1.05-1.35,3.11,3.11,0,0,1,2.45-.85h10.7a2.58,2.58,0,0,1,1.85.7,2.36,2.36,0,0,1,.75,1.8v65a2.36,2.36,0,0,1-.75,1.8,2.58,2.58,0,0,1-1.85.7h-11.9a2.6,2.6,0,0,1-1.85-.7,2.36,2.36,0,0,1-.75-1.8V45L376,65.9a4.47,4.47,0,0,1-1.2,1.6,3.19,3.19,0,0,1-2.2.7h-5.2a3.23,3.23,0,0,1-2.2-.7,6.22,6.22,0,0,1-1.3-1.6L352.63,45V82.5a2.43,2.43,0,0,1-.7,1.8,2.4,2.4,0,0,1-1.8.7Z" transform="translate(0 -11.5)"/><path class="cls-1" d="M441.23,86q-11.79,0-18.8-6.4t-7.3-19V57.1a29.09,29.09,0,0,1,3.55-13.55,21.56,21.56,0,0,1,9-8.6,29.07,29.07,0,0,1,13.45-3q8.81,0,14.55,3.5a22.17,22.17,0,0,1,8.65,9.5,31,31,0,0,1,2.9,13.7v2.4a2.36,2.36,0,0,1-.75,1.8,2.46,2.46,0,0,1-1.75.7h-32v.7a16.75,16.75,0,0,0,1,5.3,8.17,8.17,0,0,0,2.8,3.8,7.57,7.57,0,0,0,4.6,1.4,7.72,7.72,0,0,0,3.35-.65,8.65,8.65,0,0,0,2.25-1.5,17.56,17.56,0,0,0,1.4-1.45A5.33,5.33,0,0,1,449.58,70a4.46,4.46,0,0,1,1.75-.25h12.4a2.44,2.44,0,0,1,1.65.55,1.66,1.66,0,0,1,.55,1.55,8.7,8.7,0,0,1-1.7,4.1,20.44,20.44,0,0,1-4.65,4.75,25.13,25.13,0,0,1-7.65,3.85A34.51,34.51,0,0,1,441.23,86Zm-8.5-32.3h16.9v-.2a15,15,0,0,0-.95-5.6,7.71,7.71,0,0,0-2.9-3.7,8.16,8.16,0,0,0-4.65-1.3,7.71,7.71,0,0,0-4.55,1.3,8.33,8.33,0,0,0-2.85,3.7,14.62,14.62,0,0,0-1,5.6Z" transform="translate(0 -11.5)"/><path class="cls-2" d="M23.44,51.92H36.77V71.77" transform="translate(0 -11.5)"/><rect class="cls-3" x="1.93" y="7.74" width="23.16" height="23.16"/><rect class="cls-3" x="47.42" y="7.74" width="23.16" height="23.16"/><rect class="cls-3" x="1.93" y="49.1" width="23.16" height="23.16"/><rect class="cls-3" x="47.42" y="49.1" width="23.16" height="23.16"/><line class="cls-2" x1="36.67" y1="6.5" x2="36.67" y2="30.49"/><path class="cls-2" d="M.28,51.92H16.82" transform="translate(0 -11.5)"/><path class="cls-2" d="M36.67,76.73V85" transform="translate(0 -11.5)"/><path class="cls-4" d="M47.42,51.92H71.48" transform="translate(0 -11.5)"/></g></g></svg>