<?xml version="1.0" encoding="utf-8"?>
<!-- Generator: Adobe Illustrator 24.2.1, SVG Export Plug-In . SVG Version: 6.00 Build 0)  -->
<svg version="1.1" id="Layer_1" xmlns="http://www.w3.org/2000/svg" xmlns:xlink="http://www.w3.org/1999/xlink" x="0px" y="0px"
	 viewBox="0 0 467.2 74.5" style="enable-background:new 0 0 467.2 74.5;" xml:space="preserve">
<style type="text/css">
	.st0{stroke:#000000;stroke-miterlimit:10;}
	.st1{fill:none;stroke:#000000;stroke-width:4.41;stroke-miterlimit:10;}
	.st2{fill:none;stroke:#000000;stroke-width:3.86;stroke-linecap:round;stroke-miterlimit:10;}
	.st3{fill:none;stroke:#000000;stroke-width:4.85;stroke-miterlimit:10;}
</style>
<path class="st0" d="M94.3,73.5c-0.7,0-1.3-0.2-1.8-0.7c-0.5-0.5-0.7-1.1-0.7-1.8V6c0-0.7,0.2-1.3,0.7-1.8c0.5-0.5,1.1-0.7,1.8-0.7
	h26c5.7-0.2,11.4,0.9,16.7,3.1c4.4,1.9,8.1,5.1,10.6,9.2c2.6,4.6,4,9.7,4,14.9c0.1,2.9,0.1,5.5,0.1,7.7s0,4.7-0.1,7.6
	c-0.3,6.2-1.6,11.3-3.9,15.4c-2.4,4-6,7.2-10.3,9c-4.5,2-10,3-16.6,3H94.3z M109.7,59.1h10.6c2.5,0.1,4.9-0.4,7.2-1.3
	c1.9-0.9,3.4-2.4,4.3-4.2c1.1-2.4,1.6-5,1.6-7.6c0.1-1.9,0.2-3.7,0.2-5.2s0-3.1,0-4.6s-0.1-3.2-0.2-5.1c-0.1-4.5-1.3-7.9-3.6-10
	c-2.2-2.1-5.5-3.2-9.9-3.1h-10.1V59.1z"/>
<path class="st0" d="M164.7,14c-0.7,0-1.3-0.2-1.8-0.7c-0.5-0.5-0.7-1.1-0.7-1.8V2.6c0-0.7,0.2-1.3,0.7-1.9c0.5-0.5,1.1-0.8,1.8-0.8
	h11.9c1.4,0,2.6,1.1,2.6,2.5c0,0,0,0.1,0,0.1v8.9c0,0.7-0.3,1.3-0.8,1.8c-0.5,0.5-1.2,0.7-1.9,0.7H164.7z M164.8,73.5
	c-0.7,0-1.3-0.2-1.8-0.7c-0.5-0.5-0.7-1.1-0.7-1.8V24c0-0.7,0.2-1.3,0.7-1.8c0.5-0.5,1.1-0.7,1.8-0.7h11.8c0.7,0,1.3,0.2,1.8,0.7
	c0.5,0.5,0.8,1.1,0.8,1.8v47c0,0.7-0.3,1.3-0.8,1.8c-0.5,0.5-1.1,0.7-1.8,0.7H164.8z"/>
<path class="st0" d="M194.4,73.5c-0.7,0-1.3-0.2-1.8-0.7c-0.5-0.5-0.8-1.1-0.8-1.8V6c0-0.7,0.3-1.3,0.8-1.8c0.5-0.5,1.1-0.7,1.8-0.7
	h10.8c0.9-0.1,1.8,0.2,2.4,0.9c0.4,0.4,0.8,0.8,1.1,1.4l17.6,31.6l17.6-31.6c0.3-0.5,0.7-0.9,1.1-1.4c0.7-0.6,1.5-0.9,2.4-0.9h10.7
	c0.7,0,1.3,0.2,1.9,0.7c0.5,0.5,0.8,1.1,0.8,1.8v65c0,0.7-0.3,1.3-0.8,1.8c-0.5,0.5-1.2,0.7-1.9,0.7h-11.9c-0.7,0-1.4-0.2-1.9-0.7
	c-0.5-0.5-0.8-1.1-0.8-1.8V33.5l-11.3,20.9c-0.3,0.6-0.7,1.2-1.2,1.6c-0.6,0.5-1.4,0.7-2.2,0.7h-5.2c-0.8,0-1.6-0.2-2.2-0.7
	c-0.5-0.5-1-1-1.3-1.6l-11.3-20.9V71c0,0.7-0.2,1.3-0.7,1.8c-0.5,0.5-1.1,0.7-1.8,0.7H194.4z"/>
<path class="st0" d="M298.1,74.5c-4.9,0.1-9.7-0.8-14.1-2.7c-3.7-1.6-6.7-4.3-8.8-7.8c-2.1-3.7-3.3-7.8-3.5-12
	c-0.1-1.3-0.1-2.8-0.1-4.5s0-3.2,0.1-4.5c0.1-4.3,1.4-8.5,3.6-12.1c2.2-3.4,5.3-6.1,9-7.7c8.9-3.6,18.9-3.6,27.8,0
	c3.7,1.6,6.8,4.3,9,7.7c2.2,3.7,3.5,7.8,3.6,12.1c0.1,1.3,0.1,2.8,0.1,4.5s0,3.2-0.1,4.5c-0.2,4.2-1.3,8.3-3.5,12
	c-2.1,3.4-5.2,6.1-8.8,7.8C308,73.7,303.1,74.7,298.1,74.5z M298.1,62.3c3,0,5.2-0.9,6.5-2.7c1.4-1.8,2.1-4.5,2.4-8.1
	c0.1-1,0.1-2.3,0.1-4s0-3-0.1-4c-0.2-3.5-1-6.2-2.4-8s-3.5-2.8-6.5-2.8s-5.1,0.9-6.5,2.8s-2.2,4.5-2.3,8c-0.1,1-0.1,2.3-0.1,4
	s0,3,0.1,4c0.1,3.6,0.9,6.3,2.3,8.1C293,61.4,295.2,62.3,298.1,62.3z"/>
<path class="st0" d="M338.1,73.5c-0.7,0-1.3-0.2-1.8-0.7c-0.5-0.5-0.8-1.1-0.8-1.8V6c0-0.7,0.3-1.3,0.8-1.8c0.5-0.5,1.1-0.7,1.8-0.7
	h10.8c0.9-0.1,1.8,0.2,2.5,0.9c0.4,0.4,0.8,0.8,1,1.4L370,37.3l17.6-31.6c0.3-0.5,0.7-0.9,1-1.4c0.7-0.6,1.5-0.9,2.5-0.9h10.7
	c0.7,0,1.4,0.2,1.9,0.7c0.5,0.5,0.8,1.1,0.8,1.8v65c0,0.7-0.3,1.3-0.8,1.8c-0.5,0.5-1.2,0.7-1.9,0.7h-11.9c-0.7,0-1.3-0.2-1.9-0.7
	c-0.5-0.5-0.8-1.1-0.8-1.8V33.5L376,54.4c-0.3,0.6-0.7,1.2-1.2,1.6c-0.6,0.5-1.4,0.7-2.2,0.7h-5.2c-0.8,0-1.6-0.2-2.2-0.7
	c-0.5-0.5-1-1-1.3-1.6l-11.3-20.9V71c0,0.7-0.2,1.3-0.7,1.8c-0.5,0.5-1.1,0.7-1.8,0.7H338.1z"/>
<path class="st0" d="M441.2,74.5c-7.9,0-14.1-2.1-18.8-6.4c-4.7-4.3-7.1-10.6-7.3-19v-3.5c0.1-4.7,1.3-9.4,3.5-13.5
	c2.1-3.7,5.2-6.7,9-8.6c4.2-2.1,8.8-3.1,13.5-3c5.9,0,10.7,1.2,14.5,3.5c3.8,2.2,6.8,5.5,8.6,9.5c2,4.3,3,9,2.9,13.7v2.4
	c0,0.7-0.3,1.3-0.8,1.8c-0.5,0.5-1.1,0.7-1.8,0.7h-32v0.7c0,1.8,0.4,3.6,1,5.3c0.5,1.5,1.5,2.8,2.8,3.8c1.3,1,3,1.4,4.6,1.4
	c1.2,0,2.3-0.2,3.4-0.7c0.8-0.4,1.6-0.9,2.2-1.5c0.5-0.5,1-0.9,1.4-1.4c0.4-0.5,0.9-0.9,1.4-1.2c0.6-0.2,1.2-0.3,1.8-0.2h12.4
	c0.6,0,1.2,0.2,1.6,0.6c0.4,0.4,0.7,1,0.5,1.6c-0.2,1.5-0.8,2.9-1.7,4.1c-1.3,1.8-2.9,3.4-4.6,4.8c-2.3,1.7-4.9,3-7.6,3.8
	C448.5,74.1,444.9,74.6,441.2,74.5z M432.7,42.2h16.9V42c0-1.9-0.3-3.8-1-5.6c-0.6-1.5-1.6-2.8-2.9-3.7c-1.4-0.9-3-1.3-4.6-1.3
	c-1.6-0.1-3.2,0.4-4.5,1.3c-1.3,0.9-2.3,2.2-2.9,3.7c-0.7,1.8-1,3.7-1,5.6V42.2z"/>
<g>
	<path class="st1" d="M23.4,40.4h13.3v19.8"/>
	<rect x="1.9" y="7.7" class="st2" width="23.2" height="23.2"/>
	<rect x="47.4" y="7.7" class="st2" width="23.2" height="23.2"/>
	<rect x="1.9" y="49.1" class="st2" width="23.2" height="23.2"/>
	<rect x="47.4" y="49.1" class="st2" width="23.2" height="23.2"/>
	<line class="st1" x1="36.7" y1="6.5" x2="36.7" y2="30.5"/>
	<path class="st1" d="M0.3,40.4h16.5"/>
	<path class="st1" d="M36.7,65.2v8.3"/>
	<path class="st3" d="M47.4,40.4h24.1"/>
</g>
</svg>
